<svg width="40" height="18" viewBox="0 0 40 18" fill="none" xmlns="http://www.w3.org/2000/svg">
<path d="M0 1C0 0.447715 0.447715 0 1 0H39C39.5523 0 40 0.447715 40 1C40 1.55228 39.5523 2 39 2H0.999999C0.447714 2 0 1.55228 0 1Z" fill="white"/>
<path d="M20 9C20 8.44772 20.4477 8 21 8H39C39.5523 8 40 8.44772 40 9C40 9.55228 39.5523 10 39 10H21C20.4477 10 20 9.55228 20 9Z" fill="white"/>
<path d="M10 17C10 16.4477 10.4477 16 11 16H39C39.5523 16 40 16.4477 40 17C40 17.5523 39.5523 18 39 18H11C10.4477 18 10 17.5523 10 17Z" fill="white"/>
</svg>
