<svg width="50" height="45" viewBox="0 0 50 45" fill="none" xmlns="http://www.w3.org/2000/svg">
<path d="M25.0537 13.7915C19.4751 13.7915 14.8965 18.3378 14.8965 23.877C14.8965 29.4162 19.4751 33.9625 25.0537 33.9625C30.6323 33.9625 35.211 29.4162 35.211 23.877C35.211 18.3378 30.6323 13.7915 25.0537 13.7915ZM29.7903 25.497C28.8956 25.497 28.2114 24.8176 28.2114 23.9293C28.2114 22.2048 26.7905 20.7939 25.0537 20.7939C24.1591 20.7939 23.4749 20.1145 23.4749 19.2262C23.4749 18.3378 24.1591 17.6585 25.0537 17.6585C28.5272 17.6585 31.3691 20.4803 31.3691 23.9293C31.3691 24.7654 30.685 25.497 29.7903 25.497Z" fill="black"/>
<path d="M40.3685 7.10884H37.5266L34.9478 1.9877C34.3689 0.785801 33.1059 0.00195312 31.7375 0.00195312H18.3173C16.949 0.00195312 15.6859 0.785801 15.107 1.9877L12.5282 7.10884H9.68628C4.3182 7.10884 0.00268555 11.3939 0.00268555 16.724V34.3868C0.00268555 39.7169 4.3182 44.002 9.68628 44.002H40.3159C45.684 44.002 49.9995 39.7169 49.9995 34.3868V16.724C50.0522 11.3939 45.7366 7.10884 40.3685 7.10884ZM25.0537 37.3131C17.6858 37.3131 11.7388 31.3559 11.7388 24.0922C11.7388 16.7763 17.6858 10.8191 25.0537 10.8191C32.4217 10.8191 38.3687 16.7763 38.3687 24.0922C38.3687 31.3559 32.4217 37.3131 25.0537 37.3131Z" fill="black"/>
</svg>
