<svg width="54" height="53" viewBox="0 0 54 53" fill="none" xmlns="http://www.w3.org/2000/svg">
<path d="M3.375 42.2871V52.9998H8.4375V46.7978C8.4375 45.8637 9.19308 45.1063 10.125 45.1063C11.0569 45.1063 11.8125 45.8637 11.8125 46.7978V52.9999H16.875V42.2871H3.375Z" fill="black"/>
<path d="M16.875 33.8296H3.375V38.9041H16.875V33.8296Z" fill="black"/>
<path d="M37.125 39.4683V53.0002H42.1875V50.181C42.1875 49.2469 42.9431 48.4895 43.875 48.4895C44.8069 48.4895 45.5625 49.2469 45.5625 50.181V53.0002H50.625V39.4683H37.125Z" fill="black"/>
<path d="M11.8125 13.6504V7.32983H13.5V3.94686H11.8125V2.25537H8.4375V3.94686H6.75V7.32983H8.4375V13.6505C5.55736 16.3924 0 18.1245 0 24.8085C0 26.7086 0.521227 28.4861 1.42784 30.0065L15.1899 16.2119C13.9694 15.3282 12.7496 14.5427 11.8125 13.6504Z" fill="black"/>
<path d="M17.7725 18.4077L5.76147 30.447H18.5441C19.6215 28.8344 20.25 26.8954 20.25 24.8087C20.25 21.9014 19.1978 19.9319 17.7725 18.4077Z" fill="black"/>
<path d="M17.6875 12.4043V5.07446H19.375V1.69149H17.6875V0H14.3125V1.69149H12.625V5.07446H14.3125V12.4042L11.1544 18.7354C11.5083 19.3846 11.8141 20.0904 12.0538 20.8616H21.9062L17.6875 12.4043Z" fill="black"/>
<path d="M23.6141 24.2446C23.621 24.43 23.625 24.6175 23.625 24.8084C23.625 28.1463 22.4158 31.3068 20.25 33.7608V52.9999H33.75V24.2446H23.6141ZM28.6875 39.468H25.3125V32.7021H28.6875V39.468Z" fill="black"/>
<path d="M45.5625 19.2888V11.8406H47.25V8.4576H45.5625V6.76611H42.1875V8.4576H40.5V11.8406H42.1875V19.2885C40.8117 20.5988 38.8256 21.6789 37.125 23.1781V36.0853H52.2941C53.3715 34.4725 54 32.5335 54 30.4468C54 23.7629 48.4426 22.0308 45.5625 19.2888Z" fill="black"/>
</svg>
