<svg width="50" height="51" viewBox="0 0 50 51" fill="none" xmlns="http://www.w3.org/2000/svg">
<path d="M11.8889 14.5433L0 11.002V39.0021L11.8889 35.4607V14.5433Z" fill="black"/>
<path d="M35.5 34.502V15.502H14V34.502H35.5ZM25 18.891C28.6043 18.891 31.5367 21.6324 31.5367 25.0021C31.5367 28.3718 28.6043 31.1132 25 31.1132C21.3957 31.1132 18.4633 28.3718 18.4633 25.0021C18.4633 21.6324 21.3957 18.891 25 18.891Z" fill="black"/>
<path d="M24.9999 29.1688C27.2974 29.1688 29.1666 27.2996 29.1666 25.0021C29.1666 22.7046 27.2974 20.8354 24.9999 20.8354C22.7024 20.8354 20.8333 22.7046 20.8333 25.0021C20.8333 27.2996 22.7024 29.1688 24.9999 29.1688Z" fill="black"/>
<path d="M36.4846 13.3353L40.5 0.00195312H9.48462L13.5 13.3353H36.4846Z" fill="black"/>
<path d="M13.5 36.6689L9.48462 50.0023H40.5153L36.4999 36.6689H13.5Z" fill="black"/>
<path d="M38.1111 14.5433V35.4605L50 39.002V11.002L38.1111 14.5433Z" fill="black"/>
</svg>
