<svg width="90" height="41" viewBox="0 0 90 41" fill="none" xmlns="http://www.w3.org/2000/svg">
<path d="M0 16.8754V16.5188L1.44698 16.1623V0.950725L0 0.594202V0.237681H6.87315V0.594202L5.42617 0.950725V16.1623L6.87315 16.5188V16.8754H0Z" fill="white"/>
<path d="M7.83215 0.950725L6.62633 0.594202V0.237681H9.52029C10.3563 0.237681 11.0396 0.427826 11.5702 0.808115C12.1007 1.17256 12.5027 1.65585 12.776 2.25797L17.0446 11.8365L20.9755 1.30725L19.1668 0.594202V0.237681H23.6283V0.594202L21.699 1.30725L15.7905 17.113H15.067L7.83215 0.950725Z" fill="white"/>
<path d="M19.6595 16.5188L21.5888 15.8058L28.2208 0H28.9443L35.8174 16.1623L37.0232 16.5188V16.8754H34.1293C33.2933 16.8754 32.61 16.6931 32.0794 16.3287C31.5488 15.9484 31.1549 15.4572 30.8977 14.8551L29.6678 12.0029H23.904L22.3123 15.8058L24.121 16.5188V16.8754H19.6595V16.5188ZM24.1451 11.4087H29.4266L26.7738 5.15768L24.1451 11.4087Z" fill="white"/>
<path d="M39.3068 4.27826V15.8058L41.2361 16.5188V16.8754H36.654V16.5188L38.5833 15.8058V1.06957L36.8951 0.594202V0.237681H39.4273C40.2795 0.237681 40.9467 0.388212 41.429 0.689275C41.9113 0.990338 42.3695 1.3944 42.8036 1.90145L50.5208 10.8145V1.30725L48.5915 0.594202V0.237681H53.1736V0.594202L51.2443 1.30725V17.2319H50.5208L39.3068 4.27826Z" fill="white"/>
<path d="M63.3323 17.113C61.612 17.113 60.0605 16.7486 58.6778 16.0197C57.2951 15.275 56.2099 14.2529 55.4221 12.9536C54.6343 11.6385 54.2404 10.1728 54.2404 8.55652C54.2404 6.94029 54.6343 5.48251 55.4221 4.18319C56.2099 2.86802 57.2951 1.84599 58.6778 1.1171C60.0605 0.372367 61.612 0 63.3323 0C65.0526 0 66.604 0.372367 67.9867 1.1171C69.3694 1.84599 70.4546 2.8601 71.2424 4.15942C72.0302 5.45874 72.4241 6.92445 72.4241 8.55652C72.4241 10.1886 72.0302 11.6543 71.2424 12.9536C70.4546 14.2529 69.3694 15.275 67.9867 16.0197C66.604 16.7486 65.0526 17.113 63.3323 17.113ZM63.3323 14.4035C64.4577 14.4035 65.4706 14.1579 66.3709 13.6667C67.2713 13.1596 67.9787 12.4624 68.4931 11.5751C69.0076 10.6719 69.2649 9.6657 69.2649 8.55652C69.2649 7.44734 69.0076 6.44908 68.4931 5.56174C67.9787 4.65855 67.2713 3.96135 66.3709 3.47015C65.4706 2.96309 64.4577 2.70957 63.3323 2.70957C62.2068 2.70957 61.1939 2.96309 60.2936 3.47015C59.3933 3.96135 58.6858 4.65855 58.1714 5.56174C57.6569 6.44908 57.3996 7.44734 57.3996 8.55652C57.3996 9.6657 57.6569 10.6719 58.1714 11.5751C58.6858 12.4624 59.3933 13.1596 60.2936 13.6667C61.1939 14.1579 62.2068 14.4035 63.3323 14.4035Z" fill="white"/>
<path d="M74.2038 0.950725L72.998 0.594202V0.237681H75.892C76.728 0.237681 77.4113 0.427826 77.9418 0.808115C78.4724 1.17256 78.8743 1.65585 79.1477 2.25797L83.4162 11.8365L87.3472 1.30725L85.5385 0.594202V0.237681H90V0.594202L88.0707 1.30725L82.1622 17.113H81.4387L74.2038 0.950725Z" fill="white"/>
<path d="M0 40.287L1.44698 39.9304V24.7188L0 24.3623V24.0058H6.75257C9.42144 24.0058 11.3347 24.4415 12.4922 25.313C13.6498 26.1687 14.2286 27.4363 14.2286 29.1159C14.2286 30.7956 13.6498 32.0711 12.4922 32.9426C11.3347 33.7983 9.42144 34.2261 6.75257 34.2261H5.42617V39.9304L6.87315 40.287V40.6435H0V40.287ZM6.75257 33.6319C7.76545 33.6319 8.57737 33.2516 9.18831 32.491C9.81534 31.7304 10.1289 30.6054 10.1289 29.1159C10.1289 27.6423 9.81534 26.5252 9.18831 25.7646C8.57737 24.9882 7.76545 24.6 6.75257 24.6H5.42617V33.6319H6.75257Z" fill="white"/>
<path d="M16.2738 40.6435V40.287L17.7208 39.9304V24.7188L16.2738 24.3623V24.0058H23.1469V24.3623L21.7 24.7188V32.087H26.885V24.7188L25.438 24.3623V24.0058H32.3111V24.3623L30.8642 24.7188V39.9304L32.3111 40.287V40.6435H25.438V40.287L26.885 39.9304V32.6812H21.7V39.9304L23.1469 40.287V40.6435H16.2738Z" fill="white"/>
<path d="M42.4315 41C40.8559 41 39.4733 40.6672 38.2835 40.0017C37.1099 39.3204 36.2015 38.3301 35.5584 37.0307C34.9153 35.7314 34.5937 34.1627 34.5937 32.3246C34.5937 30.4866 34.9153 28.9179 35.5584 27.6185C36.2015 26.3192 37.1099 25.3368 38.2835 24.6713C39.4733 23.99 40.8559 23.6493 42.4315 23.6493C44.0071 23.6493 45.3817 23.99 46.5554 24.6713C47.7451 25.3368 48.6616 26.3192 49.3047 27.6185C49.9478 28.9179 50.2693 30.4866 50.2693 32.3246C50.2693 34.1627 49.9478 35.7314 49.3047 37.0307C48.6616 38.3301 47.7451 39.3204 46.5554 40.0017C45.3817 40.6672 44.0071 41 42.4315 41ZM42.4315 40.5246C43.0585 40.5246 43.6373 40.2632 44.1679 39.7403C44.7145 39.2174 45.1647 38.3459 45.5184 37.1258C45.8721 35.9057 46.049 34.3053 46.049 32.3246C46.049 30.344 45.8721 28.7436 45.5184 27.5235C45.1647 26.3034 44.7145 25.4319 44.1679 24.909C43.6373 24.3861 43.0585 24.1246 42.4315 24.1246C41.8045 24.1246 41.2177 24.3861 40.671 24.909C40.1405 25.4319 39.6983 26.3034 39.3446 27.5235C38.9909 28.7436 38.8141 30.344 38.8141 32.3246C38.8141 34.3053 38.9909 35.9057 39.3446 37.1258C39.6983 38.3459 40.1405 39.2174 40.671 39.7403C41.2177 40.2632 41.8045 40.5246 42.4315 40.5246Z" fill="white"/>
<path d="M55.1095 40.287L56.5565 39.9304V24.6H53.7831C53.7831 25.5666 53.5179 26.4935 52.9873 27.3809C52.7622 27.7453 52.505 28.0464 52.2156 28.2841H51.4921V24.0058H65.6001V28.2841H64.8766C64.5712 28.0464 64.3059 27.7453 64.0808 27.3809C63.5663 26.5252 63.3091 25.5983 63.3091 24.6H60.5357V39.9304L61.9827 40.287V40.6435H55.1095V40.287Z" fill="white"/>
<path d="M76.3504 40.8812C74.6301 40.8812 73.0786 40.5167 71.6959 39.7878C70.3132 39.0431 69.228 38.0211 68.4402 36.7217C67.6524 35.4066 67.2585 33.9409 67.2585 32.3246C67.2585 30.7084 67.6524 29.2506 68.4402 27.9513C69.228 26.6361 70.3132 25.6141 71.6959 24.8852C73.0786 24.1405 74.6301 23.7681 76.3504 23.7681C78.0707 23.7681 79.6221 24.1405 81.0048 24.8852C82.3875 25.6141 83.4727 26.6282 84.2605 27.9275C85.0483 29.2269 85.4422 30.6926 85.4422 32.3246C85.4422 33.9567 85.0483 35.4224 84.2605 36.7217C83.4727 38.0211 82.3875 39.0431 81.0048 39.7878C79.6221 40.5167 78.0707 40.8812 76.3504 40.8812ZM76.3504 38.1716C77.4758 38.1716 78.4887 37.926 79.389 37.4348C80.2894 36.9277 80.9968 36.2305 81.5112 35.3432C82.0257 34.44 82.283 33.4338 82.283 32.3246C82.283 31.2155 82.0257 30.2172 81.5112 29.3299C80.9968 28.4267 80.2894 27.7295 79.389 27.2383C78.4887 26.7312 77.4758 26.4777 76.3504 26.4777C75.2249 26.4777 74.212 26.7312 73.3117 27.2383C72.4114 27.7295 71.7039 28.4267 71.1895 29.3299C70.675 30.2172 70.4177 31.2155 70.4177 32.3246C70.4177 33.4338 70.675 34.44 71.1895 35.3432C71.7039 36.2305 72.4114 36.9277 73.3117 37.4348C74.212 37.926 75.2249 38.1716 76.3504 38.1716Z" fill="white"/>
</svg>
