<svg width="29" height="29" viewBox="0 0 29 29" fill="none" xmlns="http://www.w3.org/2000/svg">
<path d="M0.443333 0.294211C0.833577 -0.0980705 1.46629 -0.0980705 1.85653 0.294211L28.7073 27.2852C29.0976 27.6775 29.0976 28.3135 28.7073 28.7058C28.3171 29.0981 27.6844 29.0981 27.2941 28.7058L0.443333 1.71479C0.0530884 1.32251 0.0530891 0.686493 0.443333 0.294211Z" fill="#181818"/>
<path d="M28.5567 0.294211C28.1664 -0.0980705 27.5337 -0.0980705 27.1435 0.294211L0.292683 27.2852C-0.0975614 27.6775 -0.0975607 28.3135 0.292683 28.7058C0.682928 29.0981 1.31564 29.0981 1.70588 28.7058L28.5567 1.71479C28.9469 1.32251 28.9469 0.686493 28.5567 0.294211Z" fill="#181818"/>
</svg>
