<svg width="60" height="53" viewBox="0 0 60 53" fill="none" xmlns="http://www.w3.org/2000/svg">
<path d="M55.6886 42.2444C55.6886 45.5171 53.5329 47.6383 50.3593 47.6383H47.1258V51.9413H50.3593C56.7665 51.9413 60 48.6686 60 42.1838V38.911H55.7485V42.2444H55.6886ZM4.31138 42.2444V38.9717H0.0598839V42.2444C0.0598839 48.7292 3.29342 52.002 9.70061 52.002H12.9341V47.6989H9.70061C6.46707 47.6383 4.31138 45.4565 4.31138 42.2444ZM51.3773 8.66863H8.62275V43.2747H18.2635L19.3413 37.8807L24.6707 35.6989C26.8264 34.608 26.8264 32.4262 26.8264 31.3959C24.6707 29.2141 23.5928 27.0928 23.5928 22.7292C23.5928 18.4262 25.7485 15.1534 30 15.1534C34.2515 15.1534 36.4072 18.4262 36.4072 22.7292C36.4072 27.0322 35.3293 29.2141 33.1736 31.3959C33.1736 32.4868 33.1736 34.6686 35.3293 35.6989L40.6587 37.8807L41.7365 43.2747H51.3773V8.66863ZM50.2994 0.00195312H47.0659V4.30499H50.2994C53.5329 4.30499 55.6287 6.48678 55.6287 9.6989V12.9716H59.8802V9.6989C59.9401 3.27466 56.7066 0.00195312 50.2994 0.00195312ZM4.31138 9.75953C4.31138 6.4868 6.46707 4.36558 9.64072 4.36558H12.8743V0.0625629H9.64072C3.23354 0.0625629 0 3.33527 0 9.82012V13.0929H4.2515V9.75953H4.31138Z" fill="black"/>
</svg>
