<svg width="50" height="51" viewBox="0 0 50 51" fill="none" xmlns="http://www.w3.org/2000/svg">
<path fill-rule="evenodd" clip-rule="evenodd" d="M25 50.0024C38.8071 50.0024 50 38.8096 50 25.0024C50 11.1953 38.8071 0.00244141 25 0.00244141C11.1929 0.00244141 0 11.1953 0 25.0024C0 38.8096 11.1929 50.0024 25 50.0024ZM25 43.4548C34.2047 43.4548 41.0714 36.9568 41.0714 28.5739C41.0714 27.681 34.2047 30.6113 25 30.6113C15.7953 30.6113 8.92857 27.681 8.92857 28.5739C8.92857 36.9568 15.7953 43.4548 25 43.4548ZM18.1548 25.0024C19.6341 25.0024 20.8333 21.9377 20.8333 18.1572C20.8333 14.3767 19.6341 11.312 18.1548 11.312C16.6754 11.312 15.4762 14.3767 15.4762 18.1572C15.4762 21.9377 16.6754 25.0024 18.1548 25.0024ZM31.8452 25.0024C33.3246 25.0024 34.5238 21.9377 34.5238 18.1572C34.5238 14.3767 33.3246 11.312 31.8452 11.312C30.3659 11.312 29.1667 14.3767 29.1667 18.1572C29.1667 21.9377 30.3659 25.0024 31.8452 25.0024Z" fill="black"/>
</svg>
