<svg width="23" height="22" viewBox="0 0 23 22" fill="none" xmlns="http://www.w3.org/2000/svg">
<path d="M15.4895 0H6.59738C2.98353 0 0.043457 2.94007 0.043457 6.55392V15.4461C0.043457 19.0599 2.98353 22 6.59738 22H15.4895C19.1034 22 22.0435 19.0599 22.0435 15.4461V6.55392C22.0434 2.94007 19.1033 0 15.4895 0ZM19.8303 15.4461C19.8303 17.8434 17.8868 19.7868 15.4895 19.7868H6.59738C4.20008 19.7868 2.25666 17.8434 2.25666 15.4461V6.55392C2.25666 4.15659 4.20008 2.2132 6.59738 2.2132H15.4895C17.8868 2.2132 19.8303 4.15659 19.8303 6.55392V15.4461Z" fill="white"/>
<path d="M11.0433 5.31006C7.90579 5.31006 5.35327 7.86258 5.35327 11C5.35327 14.1374 7.90579 16.69 11.0433 16.69C14.1807 16.69 16.7332 14.1375 16.7332 11C16.7332 7.86254 14.1807 5.31006 11.0433 5.31006ZM11.0433 14.4768C9.12306 14.4768 7.56647 12.9202 7.56647 11C7.56647 9.07985 9.1231 7.52326 11.0433 7.52326C12.9634 7.52326 14.52 9.07985 14.52 11C14.52 12.9202 12.9634 14.4768 11.0433 14.4768Z" fill="white"/>
<path d="M16.7443 6.71614C17.4973 6.71614 18.1077 6.10571 18.1077 5.3527C18.1077 4.59969 17.4973 3.98926 16.7443 3.98926C15.9913 3.98926 15.3809 4.59969 15.3809 5.3527C15.3809 6.10571 15.9913 6.71614 16.7443 6.71614Z" fill="white"/>
</svg>
