<svg width="22" height="22" viewBox="0 0 22 22" fill="none" xmlns="http://www.w3.org/2000/svg">
<path d="M15.4461 0H6.55392C2.94007 0 0 2.94007 0 6.55392V15.4461C0 19.0599 2.94007 22 6.55392 22H15.4461C19.0599 22 22 19.0599 22 15.4461V6.55392C22 2.94007 19.0599 0 15.4461 0ZM19.7868 15.4461C19.7868 17.8434 17.8434 19.7868 15.4461 19.7868H6.55392C4.15663 19.7868 2.2132 17.8434 2.2132 15.4461V6.55392C2.2132 4.15659 4.15663 2.2132 6.55392 2.2132H15.4461C17.8434 2.2132 19.7868 4.15659 19.7868 6.55392V15.4461Z" fill="#2A7CDD"/>
<path d="M10.9998 5.30957C7.86234 5.30957 5.30981 7.86209 5.30981 10.9995C5.30981 14.1369 7.86234 16.6895 10.9998 16.6895C14.1373 16.6895 16.6898 14.137 16.6898 10.9995C16.6898 7.86205 14.1373 5.30957 10.9998 5.30957ZM10.9998 14.4763C9.07961 14.4763 7.52301 12.9197 7.52301 10.9996C7.52301 9.07936 9.07965 7.52277 10.9998 7.52277C12.92 7.52277 14.4766 9.07936 14.4766 10.9996C14.4766 12.9197 12.9199 14.4763 10.9998 14.4763Z" fill="#2A7CDD"/>
<path d="M16.7008 6.71614C17.4538 6.71614 18.0643 6.10571 18.0643 5.3527C18.0643 4.59969 17.4538 3.98926 16.7008 3.98926C15.9478 3.98926 15.3374 4.59969 15.3374 5.3527C15.3374 6.10571 15.9478 6.71614 16.7008 6.71614Z" fill="#2A7CDD"/>
</svg>
