<svg width="23" height="16" viewBox="0 0 23 16" fill="none" xmlns="http://www.w3.org/2000/svg">
<path fill-rule="evenodd" clip-rule="evenodd" d="M20.4991 0.489412C21.4843 0.752941 22.261 1.52471 22.5263 2.50353C23.0188 4.29176 22.9999 8.01882 22.9999 8.01882C22.9999 8.01882 22.9999 11.7271 22.5263 13.5153C22.261 14.4941 21.4843 15.2659 20.4991 15.5294C18.6993 16 11.5 16 11.5 16C11.5 16 4.31959 16 2.50081 15.5106C1.51564 15.2471 0.738877 14.4753 0.473639 13.4965C0 11.7271 0 8 0 8C0 8 0 4.29176 0.473639 2.50353C0.738877 1.52471 1.53459 0.734118 2.50081 0.470588C4.30064 0 11.5 0 11.5 0C11.5 0 18.6993 0 20.4991 0.489412ZM9.2077 4.57401L15.1945 7.9999L9.2077 11.4258V4.57401Z" fill="#2A7CDD"/>
</svg>
