<svg width="24" height="16" viewBox="0 0 24 16" fill="none" xmlns="http://www.w3.org/2000/svg">
<path fill-rule="evenodd" clip-rule="evenodd" d="M20.5425 0.489412C21.5277 0.752941 22.3045 1.52471 22.5697 2.50353C23.0623 4.29176 23.0434 8.01882 23.0434 8.01882C23.0434 8.01882 23.0434 11.7271 22.5697 13.5153C22.3045 14.4941 21.5277 15.2659 20.5425 15.5294C18.7427 16 11.5434 16 11.5434 16C11.5434 16 4.36304 16 2.54427 15.5106C1.5591 15.2471 0.782334 14.4753 0.517096 13.4965C0.043457 11.7271 0.043457 8 0.043457 8C0.043457 8 0.043457 4.29176 0.517096 2.50353C0.782334 1.52471 1.57805 0.734118 2.54427 0.470588C4.3441 0 11.5434 0 11.5434 0C11.5434 0 18.7427 0 20.5425 0.489412ZM9.25116 4.57401L15.238 7.9999L9.25116 11.4258V4.57401Z" fill="white"/>
</svg>
