<svg width="14" height="15" viewBox="0 0 14 15" fill="none" xmlns="http://www.w3.org/2000/svg">
<path d="M14 3.34981V4.85502H0.000488281V3.34981C0.000488281 2.38463 0.775877 1.60181 1.73247 1.60181H12.2683C13.2243 1.60181 14 2.38463 14 3.34981Z" fill="black"/>
<path d="M0 5.43604V13.2522C0 14.2171 0.775389 15.0002 1.73199 15.0002H12.2678C13.2241 15.0002 13.9995 14.2174 13.9995 13.2522V5.43604H0ZM3.56093 12.6706H1.82894V10.9229H3.56093V12.6706ZM3.56093 9.56312H1.82894V7.81537H3.56093V9.56312ZM6.44757 12.6706H4.71558V10.9229H6.44757V12.6706ZM6.44757 9.56312H4.71558V7.81537H6.44757V9.56312ZM9.33421 12.6706H7.60197V10.9229H9.33421V12.6706ZM9.33421 9.56312H7.60197V7.81537H9.33421V9.56312ZM12.2206 12.6706H10.4886V10.9229H12.2206V12.6706ZM12.2206 9.56312H10.4886V7.81537H12.2206V9.56312Z" fill="black"/>
<path d="M2.98354 3.22862C3.46174 3.22862 3.8494 2.50587 3.8494 1.61431C3.8494 0.722751 3.46174 0 2.98354 0C2.50534 0 2.11768 0.722751 2.11768 1.61431C2.11768 2.50587 2.50534 3.22862 2.98354 3.22862Z" fill="black"/>
<path d="M11.0656 3.22862C11.5438 3.22862 11.9314 2.50587 11.9314 1.61431C11.9314 0.722751 11.5438 0 11.0656 0C10.5874 0 10.1997 0.722751 10.1997 1.61431C10.1997 2.50587 10.5874 3.22862 11.0656 3.22862Z" fill="black"/>
</svg>
