<svg width="12" height="16" viewBox="0 0 12 16" fill="none" xmlns="http://www.w3.org/2000/svg">
<path d="M0.876943 15.5733C1.01277 15.6222 1.18819 15.6687 1.18819 15.6687L1.49944 15.7703L1.81069 15.8491L2.10792 15.9042C2.10792 15.9042 2.82026 15.9975 3.1794 15.9988C4.31403 16.0258 5.42032 15.6381 6.29577 14.9068C6.7203 14.5586 7.05508 14.1113 7.27138 13.6033C7.48768 13.0953 7.57904 12.5418 7.53765 11.9902C7.49753 11.4964 7.33927 11.0199 7.07653 10.602C6.81379 10.184 6.45448 9.83708 6.02965 9.59121C4.76209 8.84906 3.56457 8.71907 2.6565 9.20832C2.28419 9.42165 1.97149 9.72723 1.74774 10.0964C1.52399 10.4656 1.39651 10.8863 1.37727 11.319C1.36831 11.5988 1.37532 11.879 1.39828 12.158C1.42863 12.6709 1.46131 13.2003 1.31424 13.5572C1.10882 14.0559 0.499553 14.4459 0.207758 14.583L0 14.6846V14.921C0.000535674 14.9816 0.015191 15.0412 0.0427731 15.095C0.0703553 15.1488 0.110086 15.1953 0.158737 15.2306L0.332259 15.337L0.565695 15.4552C0.565695 15.4552 0.75461 15.5294 0.876943 15.5733Z" fill="black"/>
<path d="M8.00442 9.82371C8.19863 9.82283 8.38878 9.76734 8.55366 9.66342C8.71854 9.5595 8.85166 9.41124 8.93816 9.23519L11.7394 3.58397C11.8876 3.28525 11.9746 2.95928 11.9951 2.62565C12.0157 2.29203 11.9694 1.95763 11.8591 1.64258C11.7488 1.32752 11.5766 1.03831 11.3531 0.792326C11.1295 0.546345 10.8591 0.348676 10.5582 0.211203H10.5395C9.96478 -0.0459908 9.31427 -0.0691622 8.72309 0.1465C8.1319 0.362162 7.64547 0.800087 7.3648 1.36934L4.50988 7.11982C4.44644 7.24808 4.40928 7.38801 4.40064 7.53119C4.392 7.67437 4.41205 7.81784 4.45959 7.95297C4.50713 8.0881 4.58117 8.2121 4.67727 8.3175C4.77337 8.4229 4.88953 8.50754 5.01877 8.56631L7.57256 9.72917C7.70829 9.79125 7.85548 9.82348 8.00442 9.82371Z" fill="black"/>
</svg>
