<svg width="14" height="12" viewBox="0 0 14 12" fill="none" xmlns="http://www.w3.org/2000/svg">
<path d="M7.01459 3.80542C5.4525 3.80542 4.17041 5.04533 4.17041 6.55601C4.17041 8.0667 5.4525 9.30661 7.01459 9.30661C8.57668 9.30661 9.85878 8.0667 9.85878 6.55601C9.85878 5.04533 8.57668 3.80542 7.01459 3.80542ZM8.3409 6.99782C8.09037 6.99782 7.8988 6.81255 7.8988 6.57027C7.8988 6.09996 7.5009 5.71516 7.01459 5.71516C6.76407 5.71516 6.57249 5.52989 6.57249 5.28761C6.57249 5.04533 6.76407 4.86005 7.01459 4.86005C7.98722 4.86005 8.783 5.62965 8.783 6.57027C8.783 6.79829 8.59142 6.99782 8.3409 6.99782Z" fill="black"/>
<path d="M11.3031 1.93824H10.5073L9.78517 0.541568C9.62307 0.213777 9.26939 0 8.88623 0H5.12837C4.74522 0 4.39154 0.213777 4.22943 0.541568L3.50734 1.93824H2.71155C1.20841 1.93824 0 3.10689 0 4.56057V9.37767C0 10.8314 1.20841 12 2.71155 12H11.2883C12.7915 12 13.9999 10.8314 13.9999 9.37767V4.56057C14.0146 3.10689 12.8062 1.93824 11.3031 1.93824ZM7.01467 10.1758C4.95153 10.1758 3.28628 8.55107 3.28628 6.57007C3.28628 4.57482 4.95153 2.95012 7.01467 2.95012C9.07781 2.95012 10.7431 4.57482 10.7431 6.57007C10.7431 8.55107 9.07781 10.1758 7.01467 10.1758Z" fill="black"/>
</svg>
